<svg xmlns="http://www.w3.org/2000/svg">
  <symbol id="solution-independent" viewBox="0 0 24 24">
    <path fill="currentColor" d="M5.2 8.2h13.6v10.4c0 1-.8 1.8-1.8 1.8H7c-1 0-1.8-.8-1.8-1.8V8.2Z"/>
    <path fill="currentColor" d="M4 8.8 5.9 3.7h12.2L20 8.8H4Z" opacity=".55"/>
    <path fill="#fff" d="M8 11h3v3H8zm5 0h3v3h-3zm-3.1 5h4.2v4.4H9.9z"/>
  </symbol>
  <symbol id="solution-multisite" viewBox="0 0 24 24">
    <path fill="none" stroke="currentColor" stroke-width="2" stroke-linecap="round" d="M8.5 7.5h7M6.5 10v2.5c0 1 .8 1.8 1.8 1.8H12m5.5-4.3v2.5c0 1-.8 1.8-1.8 1.8H12" opacity=".65"/>
    <rect x="2.8" y="3.2" width="7.2" height="7.2" rx="2.2" fill="currentColor"/>
    <rect x="14" y="3.2" width="7.2" height="7.2" rx="2.2" fill="currentColor"/>
    <rect x="8.4" y="13.6" width="7.2" height="7.2" rx="2.2" fill="currentColor"/>
    <circle cx="6.4" cy="6.8" r="1.1" fill="#fff"/><circle cx="17.6" cy="6.8" r="1.1" fill="#fff"/><circle cx="12" cy="17.2" r="1.1" fill="#fff"/>
  </symbol>
  <symbol id="solution-franchise" viewBox="0 0 24 24">
    <path fill="none" stroke="currentColor" stroke-width="2" stroke-linecap="round" d="M12 9v4M5.5 13h13M5.5 13v3m13-3v3" opacity=".65"/>
    <path fill="currentColor" d="M7.2 3h9.6l1 3.1v3.4H6.2V6.1L7.2 3Z"/>
    <rect x="2.5" y="15.5" width="6" height="5.5" rx="1.5" fill="currentColor"/>
    <rect x="15.5" y="15.5" width="6" height="5.5" rx="1.5" fill="currentColor"/>
    <path fill="#fff" d="M9.3 6.2h5.4v1.4H9.3zM4.4 17.3h2.2v1.4H4.4zm13 0h2.2v1.4h-2.2z"/>
  </symbol>
  <symbol id="solution-hospitality" viewBox="0 0 24 24">
    <path fill="currentColor" d="M4.2 7h15.6v14H4.2V7Z"/>
    <path fill="currentColor" d="M7.5 3h9v4h-9V3Z" opacity=".55"/>
    <path fill="#fff" d="M7 9.5h2.4v2.2H7zm3.8 0h2.4v2.2h-2.4zm3.8 0H17v2.2h-2.4zM7 13h2.4v2.2H7zm7.6 0H17v2.2h-2.4zM10 16.8h4V21h-4z"/>
  </symbol>
  <symbol id="benefit-compliance" viewBox="0 0 24 24">
    <path fill="currentColor" d="M12 2.6 20 5.7v5.8c0 5-3.3 8.4-8 10-4.7-1.6-8-5-8-10V5.7L12 2.6Z"/>
    <path fill="none" stroke="#fff" stroke-width="2" stroke-linecap="round" stroke-linejoin="round" d="m8.2 12 2.4 2.4 5.2-5.2"/>
  </symbol>
  <symbol id="benefit-consistency" viewBox="0 0 24 24">
    <path fill="none" stroke="currentColor" stroke-width="2" stroke-linecap="round" d="M7 7h10M6 10.5v3c0 1 .8 1.8 1.8 1.8H12m6-4.8v3c0 1-.8 1.8-1.8 1.8H12" opacity=".65"/>
    <rect x="2.5" y="3" width="7.5" height="7.5" rx="2.2" fill="currentColor"/>
    <rect x="14" y="3" width="7.5" height="7.5" rx="2.2" fill="currentColor"/>
    <rect x="8.25" y="13.5" width="7.5" height="7.5" rx="2.2" fill="currentColor"/>
    <path fill="none" stroke="#fff" stroke-width="1.4" stroke-linecap="round" stroke-linejoin="round" d="m4.8 6.8 1.1 1.1 1.9-2.1m8.5 1 1.1 1.1 1.9-2.1m-8.7 11.5 1.1 1.1 1.9-2.1"/>
  </symbol>
  <symbol id="benefit-accountability" viewBox="0 0 24 24">
    <circle cx="9" cy="8" r="3.2" fill="currentColor"/>
    <path fill="currentColor" d="M3.5 19.7c.2-4 2-6.2 5.5-6.2s5.3 2.2 5.5 6.2h-11Z"/>
    <circle cx="17.5" cy="8.5" r="2.4" fill="currentColor" opacity=".5"/>
    <path fill="currentColor" d="M14.4 19.7c0-2.3-.7-4-1.9-5.2.9-.6 2-.9 3.3-.9 3 0 4.5 2.2 4.7 6.1h-6.1Z" opacity=".5"/>
    <circle cx="17.8" cy="17.7" r="4" fill="#fff"/>
    <circle cx="17.8" cy="17.7" r="3.2" fill="currentColor"/>
    <path fill="none" stroke="#fff" stroke-width="1.3" stroke-linecap="round" stroke-linejoin="round" d="m16.2 17.8 1.1 1.1 2-2.2"/>
  </symbol>
  <symbol id="benefit-savings" viewBox="0 0 24 24">
    <circle cx="12" cy="13" r="8" fill="currentColor"/>
    <path fill="none" stroke="#fff" stroke-width="1.8" stroke-linecap="round" d="M12 8.6V13l3 1.8M9 2.8h6M12 2.8v2"/>
    <path fill="none" stroke="currentColor" stroke-width="1.8" stroke-linecap="round" d="m18.4 6.3 1.4-1.4"/>
  </symbol>
  <symbol id="venue-restaurant" viewBox="0 0 24 24">
    <circle cx="12" cy="12" r="8.2" fill="currentColor" opacity=".16"/>
    <circle cx="12" cy="12" r="5.2" fill="none" stroke="currentColor" stroke-width="1.8"/>
    <path fill="currentColor" d="M4.2 3.2h1.4v5.2h1V3.2H8v5.2h1V3.2h1.4v5.5c0 1.4-.9 2.6-2.2 3v9.1H6.4v-9.1a3.2 3.2 0 0 1-2.2-3V3.2Zm15.6 0v17.6H18V13h-1.4V8.1c0-2.6 1.2-4.4 3.2-4.9Z"/>
  </symbol>
  <symbol id="venue-cafe" viewBox="0 0 24 24">
    <path fill="currentColor" d="M4.2 8.2h12.6v6.1a5.5 5.5 0 0 1-5.5 5.5H9.7a5.5 5.5 0 0 1-5.5-5.5V8.2Z"/>
    <path fill="none" stroke="currentColor" stroke-width="2" d="M16.5 10h1.4a2.8 2.8 0 1 1 0 5.6h-1.8M3 21h16.5"/>
    <path fill="none" stroke="currentColor" stroke-width="1.8" stroke-linecap="round" d="M8 3.2c0 1.2 1.1 1.2 1.1 2.4m3-2.4c0 1.2 1.1 1.2 1.1 2.4"/>
    <path fill="#fff" d="M6.3 10.2h8.4v1.5H6.3z" opacity=".75"/>
  </symbol>
  <symbol id="venue-bakery" viewBox="0 0 24 24">
    <path fill="currentColor" d="M3.8 19.8v-8.1A8.2 8.2 0 0 1 12 3.5a8.2 8.2 0 0 1 8.2 8.2v8.1H3.8Z"/>
    <path fill="none" stroke="#fff" stroke-width="1.7" stroke-linecap="round" d="m7.8 9.1 2.6 2.5m1-4 2.7 2.5m1.1-2 2.4 2.4" opacity=".85"/>
  </symbol>
  <symbol id="venue-pub" viewBox="0 0 24 24">
    <path fill="currentColor" d="M4.2 4h12.4l-1.3 16H5.5L4.2 4Z"/>
    <path fill="none" stroke="currentColor" stroke-width="2" d="M16 7h1.8a3 3 0 0 1 0 6H16"/>
    <path fill="#fff" d="M6.2 6h8.4l-.2 2.4c-1-.4-1.7.4-2.7.1-1-.3-1.4-1.1-2.5-.5-1 .5-1.8.2-2.7-.2L6.2 6Z"/>
    <circle cx="8.5" cy="11" r=".8" fill="#fff" opacity=".8"/><circle cx="12.4" cy="13.6" r=".7" fill="#fff" opacity=".8"/>
  </symbol>
  <symbol id="venue-hotel" viewBox="0 0 24 24">
    <path fill="currentColor" d="M4.2 7h15.6v14H4.2V7Z"/>
    <path fill="currentColor" d="M7.5 3h9v4h-9V3Z" opacity=".55"/>
    <path fill="#fff" d="M7 9.5h2.4v2.2H7zm3.8 0h2.4v2.2h-2.4zm3.8 0H17v2.2h-2.4zM7 13h2.4v2.2H7zm7.6 0H17v2.2h-2.4zM10 16.8h4V21h-4z"/>
  </symbol>
  <symbol id="venue-catering" viewBox="0 0 24 24">
    <path fill="currentColor" d="M4.2 16.8a7.8 7.8 0 0 1 15.6 0H4.2Z"/>
    <rect x="2.5" y="18.2" width="19" height="2.5" rx="1.25" fill="currentColor"/>
    <path fill="currentColor" d="M11 7h2v3.2h-2zM9.4 5.2h5.2v2H9.4z"/>
    <path fill="#fff" d="m18.3 3 .5 1.2 1.2.5-1.2.5-.5 1.2-.5-1.2-1.2-.5 1.2-.5.5-1.2Z"/>
  </symbol>
</svg>
